# Blender v3.2.2 OBJ File: 'plates.blend'
# www.blender.org
mtllib plates.mtl
o plates_Circle
v 0.000000 0.000000 -0.146098
v -0.103307 0.000000 -0.103307
v -0.146098 0.000000 0.000000
v -0.103307 0.000000 0.103307
v 0.000000 0.000000 0.146098
v 0.103307 0.000000 0.103307
v 0.146098 0.000000 -0.000000
v 0.103307 0.000000 -0.103307
v 0.000000 0.010869 -0.181609
v -0.128417 0.010869 -0.128417
v -0.181609 0.010869 0.000000
v -0.128417 0.010869 0.128417
v 0.000000 0.010869 0.181609
v 0.128417 0.010869 0.128417
v 0.181609 0.010869 -0.000000
v 0.128417 0.010869 -0.128417
v 0.000000 0.000000 0.000000
v 0.000000 0.008494 -0.146098
v -0.103307 0.008494 -0.103307
v -0.146098 0.008494 0.000000
v -0.103307 0.008494 0.103307
v 0.000000 0.008494 0.146098
v 0.103307 0.008494 0.103307
v 0.146098 0.008494 -0.000000
v 0.103307 0.008494 -0.103307
v 0.000000 0.019363 -0.181609
v -0.128417 0.019363 -0.128417
v -0.181609 0.019363 0.000000
v -0.128417 0.019363 0.128417
v 0.000000 0.019363 0.181609
v 0.128417 0.019363 0.128417
v 0.181609 0.019363 -0.000000
v 0.128417 0.019363 -0.128417
v 0.000000 0.008494 0.000000
v 0.000000 0.015968 -0.146098
v -0.103307 0.015968 -0.103307
v -0.146098 0.015968 0.000000
v -0.103307 0.015968 0.103307
v 0.000000 0.015968 0.146098
v 0.103307 0.015968 0.103307
v 0.146098 0.015968 -0.000000
v 0.103307 0.015968 -0.103307
v 0.000000 0.026837 -0.181609
v -0.128417 0.026837 -0.128417
v -0.181609 0.026837 0.000000
v -0.128417 0.026837 0.128417
v 0.000000 0.026837 0.181609
v 0.128417 0.026837 0.128417
v 0.181609 0.026837 -0.000000
v 0.128417 0.026837 -0.128417
v 0.000000 0.015968 0.000000
v 0.000000 0.024463 -0.146098
v -0.103307 0.024463 -0.103307
v -0.146098 0.024463 0.000000
v -0.103307 0.024463 0.103307
v 0.000000 0.024463 0.146098
v 0.103307 0.024463 0.103307
v 0.146098 0.024463 -0.000000
v 0.103307 0.024463 -0.103307
v 0.000000 0.035332 -0.181609
v -0.128417 0.035332 -0.128417
v -0.181609 0.035332 0.000000
v -0.128417 0.035332 0.128417
v 0.000000 0.035332 0.181609
v 0.128417 0.035332 0.128417
v 0.181609 0.035332 -0.000000
v 0.128417 0.035332 -0.128417
v 0.000000 0.024463 0.000000
v 0.000000 0.030965 -0.146098
v -0.103307 0.030965 -0.103307
v -0.146098 0.030965 0.000000
v -0.103307 0.030965 0.103307
v 0.000000 0.030965 0.146098
v 0.103307 0.030965 0.103307
v 0.146098 0.030965 -0.000000
v 0.103307 0.030965 -0.103307
v 0.000000 0.041834 -0.181609
v -0.128417 0.041834 -0.128417
v -0.181609 0.041834 0.000000
v -0.128417 0.041834 0.128417
v 0.000000 0.041834 0.181609
v 0.128417 0.041834 0.128417
v 0.181609 0.041834 -0.000000
v 0.128417 0.041834 -0.128417
v 0.000000 0.030965 0.000000
v 0.000000 0.039460 -0.146098
v -0.103307 0.039460 -0.103307
v -0.146098 0.039460 0.000000
v -0.103307 0.039460 0.103307
v 0.000000 0.039460 0.146098
v 0.103307 0.039460 0.103307
v 0.146098 0.039460 -0.000000
v 0.103307 0.039460 -0.103307
v 0.000000 0.050329 -0.181609
v -0.128417 0.050329 -0.128417
v -0.181609 0.050329 0.000000
v -0.128417 0.050329 0.128417
v 0.000000 0.050329 0.181609
v 0.128417 0.050329 0.128417
v 0.181609 0.050329 -0.000000
v 0.128417 0.050329 -0.128417
v 0.000000 0.039460 0.000000
v 0.000000 0.046934 -0.146098
v -0.103307 0.046934 -0.103307
v -0.146098 0.046934 0.000000
v -0.103307 0.046934 0.103307
v 0.000000 0.046934 0.146098
v 0.103307 0.046934 0.103307
v 0.146098 0.046934 -0.000000
v 0.103307 0.046934 -0.103307
v 0.000000 0.057803 -0.181609
v -0.128417 0.057803 -0.128417
v -0.181609 0.057803 0.000000
v -0.128417 0.057803 0.128417
v 0.000000 0.057803 0.181609
v 0.128417 0.057803 0.128417
v 0.181609 0.057803 -0.000000
v 0.128417 0.057803 -0.128417
v 0.000000 0.046934 0.000000
v 0.000000 0.055428 -0.146098
v -0.103307 0.055428 -0.103307
v -0.146098 0.055428 0.000000
v -0.103307 0.055428 0.103307
v 0.000000 0.055428 0.146098
v 0.103307 0.055428 0.103307
v 0.146098 0.055428 -0.000000
v 0.103307 0.055428 -0.103307
v 0.000000 0.066297 -0.181609
v -0.128417 0.066297 -0.128417
v -0.181609 0.066297 0.000000
v -0.128417 0.066297 0.128417
v 0.000000 0.066297 0.181609
v 0.128417 0.066297 0.128417
v 0.181609 0.066297 -0.000000
v 0.128417 0.066297 -0.128417
v 0.000000 0.055428 0.000000
v 0.000000 0.000000 -0.146098
v -0.103307 0.000000 -0.103307
v -0.146098 0.000000 0.000000
v -0.103307 0.000000 0.103307
v 0.000000 0.000000 0.146098
v 0.103307 0.000000 0.103307
v 0.146098 0.000000 -0.000000
v 0.103307 0.000000 -0.103307
v 0.000000 0.010869 -0.181609
v -0.128417 0.010869 -0.128417
v -0.181609 0.010869 0.000000
v -0.128417 0.010869 0.128417
v 0.000000 0.010869 0.181609
v 0.128417 0.010869 0.128417
v 0.181609 0.010869 -0.000000
v 0.128417 0.010869 -0.128417
v 0.000000 0.000000 0.000000
v 0.000000 0.008494 -0.146098
v -0.103307 0.008494 -0.103307
v -0.146098 0.008494 0.000000
v -0.103307 0.008494 0.103307
v 0.000000 0.008494 0.146098
v 0.103307 0.008494 0.103307
v 0.146098 0.008494 -0.000000
v 0.103307 0.008494 -0.103307
v 0.000000 0.019363 -0.181609
v -0.128417 0.019363 -0.128417
v -0.181609 0.019363 0.000000
v -0.128417 0.019363 0.128417
v 0.000000 0.019363 0.181609
v 0.128417 0.019363 0.128417
v 0.181609 0.019363 -0.000000
v 0.128417 0.019363 -0.128417
v 0.000000 0.008494 0.000000
v 0.000000 0.015968 -0.146098
v -0.103307 0.015968 -0.103307
v -0.146098 0.015968 0.000000
v -0.103307 0.015968 0.103307
v 0.000000 0.015968 0.146098
v 0.103307 0.015968 0.103307
v 0.146098 0.015968 -0.000000
v 0.103307 0.015968 -0.103307
v 0.000000 0.026837 -0.181609
v -0.128417 0.026837 -0.128417
v -0.181609 0.026837 0.000000
v -0.128417 0.026837 0.128417
v 0.000000 0.026837 0.181609
v 0.128417 0.026837 0.128417
v 0.181609 0.026837 -0.000000
v 0.128417 0.026837 -0.128417
v 0.000000 0.015968 0.000000
v 0.000000 0.024463 -0.146098
v -0.103307 0.024463 -0.103307
v -0.146098 0.024463 0.000000
v -0.103307 0.024463 0.103307
v 0.000000 0.024463 0.146098
v 0.103307 0.024463 0.103307
v 0.146098 0.024463 -0.000000
v 0.103307 0.024463 -0.103307
v 0.000000 0.035332 -0.181609
v -0.128417 0.035332 -0.128417
v -0.181609 0.035332 0.000000
v -0.128417 0.035332 0.128417
v 0.000000 0.035332 0.181609
v 0.128417 0.035332 0.128417
v 0.181609 0.035332 -0.000000
v 0.128417 0.035332 -0.128417
v 0.000000 0.024463 0.000000
v 0.000000 0.030965 -0.146098
v -0.103307 0.030965 -0.103307
v -0.146098 0.030965 0.000000
v -0.103307 0.030965 0.103307
v 0.000000 0.030965 0.146098
v 0.103307 0.030965 0.103307
v 0.146098 0.030965 -0.000000
v 0.103307 0.030965 -0.103307
v 0.000000 0.041834 -0.181609
v -0.128417 0.041834 -0.128417
v -0.181609 0.041834 0.000000
v -0.128417 0.041834 0.128417
v 0.000000 0.041834 0.181609
v 0.128417 0.041834 0.128417
v 0.181609 0.041834 -0.000000
v 0.128417 0.041834 -0.128417
v 0.000000 0.030965 0.000000
v 0.000000 0.039460 -0.146098
v -0.103307 0.039460 -0.103307
v -0.146098 0.039460 0.000000
v -0.103307 0.039460 0.103307
v 0.000000 0.039460 0.146098
v 0.103307 0.039460 0.103307
v 0.146098 0.039460 -0.000000
v 0.103307 0.039460 -0.103307
v 0.000000 0.050329 -0.181609
v -0.128417 0.050329 -0.128417
v -0.181609 0.050329 0.000000
v -0.128417 0.050329 0.128417
v 0.000000 0.050329 0.181609
v 0.128417 0.050329 0.128417
v 0.181609 0.050329 -0.000000
v 0.128417 0.050329 -0.128417
v 0.000000 0.039460 0.000000
v 0.000000 0.046934 -0.146098
v -0.103307 0.046934 -0.103307
v -0.146098 0.046934 0.000000
v -0.103307 0.046934 0.103307
v 0.000000 0.046934 0.146098
v 0.103307 0.046934 0.103307
v 0.146098 0.046934 -0.000000
v 0.103307 0.046934 -0.103307
v 0.000000 0.057803 -0.181609
v -0.128417 0.057803 -0.128417
v -0.181609 0.057803 0.000000
v -0.128417 0.057803 0.128417
v 0.000000 0.057803 0.181609
v 0.128417 0.057803 0.128417
v 0.181609 0.057803 -0.000000
v 0.128417 0.057803 -0.128417
v 0.000000 0.046934 0.000000
v 0.000000 0.055428 -0.146098
v -0.103307 0.055428 -0.103307
v -0.146098 0.055428 0.000000
v -0.103307 0.055428 0.103307
v 0.000000 0.055428 0.146098
v 0.103307 0.055428 0.103307
v 0.146098 0.055428 -0.000000
v 0.103307 0.055428 -0.103307
v 0.000000 0.066297 -0.181609
v -0.128417 0.066297 -0.128417
v -0.181609 0.066297 0.000000
v -0.128417 0.066297 0.128417
v 0.000000 0.066297 0.181609
v 0.128417 0.066297 0.128417
v 0.181609 0.066297 -0.000000
v 0.128417 0.066297 -0.128417
v 0.000000 0.055428 0.000000
vt 0.000000 0.000000
vt 0.000000 0.000000
vt 0.000000 0.000000
vt 0.000000 0.000000
vt 0.000000 0.000000
vt 0.000000 0.000000
vt 0.000000 0.000000
vt 0.000000 0.000000
vt 0.000000 0.000000
vt 0.000000 0.000000
vt 0.000000 0.000000
vt 0.000000 0.000000
vt 0.000000 0.000000
vt 0.000000 0.000000
vt 0.000000 0.000000
vt 0.000000 0.000000
vt 0.000000 0.000000
vt 0.000000 0.000000
vt 0.000000 0.000000
vt 0.000000 0.000000
vt 0.000000 0.000000
vt 0.000000 0.000000
vt 0.000000 0.000000
vt 0.000000 0.000000
vt 0.000000 0.000000
vt 0.000000 0.000000
vt 0.000000 0.000000
vt 0.000000 0.000000
vt 0.000000 0.000000
vt 0.000000 0.000000
vt 0.000000 0.000000
vt 0.000000 0.000000
vt 0.000000 0.000000
vt 0.000000 0.000000
vt 0.000000 0.000000
vt 0.000000 0.000000
vt 0.000000 0.000000
vt 0.000000 0.000000
vt 0.000000 0.000000
vt 0.000000 0.000000
vt 0.000000 0.000000
vt 0.000000 0.000000
vt 0.000000 0.000000
vt 0.000000 0.000000
vt 0.000000 0.000000
vt 0.000000 0.000000
vt 0.000000 0.000000
vt 0.000000 0.000000
vt 0.000000 0.000000
vt 0.000000 0.000000
vt 0.000000 0.000000
vt 0.000000 0.000000
vt 0.000000 0.000000
vt 0.000000 0.000000
vt 0.000000 0.000000
vt 0.000000 0.000000
vt 0.000000 0.000000
vt 0.000000 0.000000
vt 0.000000 0.000000
vt 0.000000 0.000000
vt 0.000000 0.000000
vt 0.000000 0.000000
vt 0.000000 0.000000
vt 0.000000 0.000000
vt 0.000000 0.000000
vt 0.000000 0.000000
vt 0.000000 0.000000
vt 0.000000 0.000000
vt 0.000000 0.000000
vt 0.000000 0.000000
vt 0.000000 0.000000
vt 0.000000 0.000000
vt 0.000000 0.000000
vt 0.000000 0.000000
vt 0.000000 0.000000
vt 0.000000 0.000000
vt 0.000000 0.000000
vt 0.000000 0.000000
vt 0.000000 0.000000
vt 0.000000 0.000000
vt 0.000000 0.000000
vt 0.000000 0.000000
vt 0.000000 0.000000
vt 0.000000 0.000000
vt 0.000000 0.000000
vt 0.000000 0.000000
vt 0.000000 0.000000
vt 0.000000 0.000000
vt 0.000000 0.000000
vt 0.000000 0.000000
vt 0.000000 0.000000
vt 0.000000 0.000000
vt 0.000000 0.000000
vt 0.000000 0.000000
vt 0.000000 0.000000
vt 0.000000 0.000000
vt 0.000000 0.000000
vt 0.000000 0.000000
vt 0.000000 0.000000
vt 0.000000 0.000000
vt 0.000000 0.000000
vt 0.000000 0.000000
vt 0.000000 0.000000
vt 0.000000 0.000000
vt 0.000000 0.000000
vt 0.000000 0.000000
vt 0.000000 0.000000
vt 0.000000 0.000000
vt 0.000000 0.000000
vt 0.000000 0.000000
vt 0.000000 0.000000
vt 0.000000 0.000000
vt 0.000000 0.000000
vt 0.000000 0.000000
vt 0.000000 0.000000
vt 0.000000 0.000000
vt 0.000000 0.000000
vt 0.000000 0.000000
vt 0.000000 0.000000
vt 0.000000 0.000000
vt 0.000000 0.000000
vt 0.000000 0.000000
vt 0.000000 0.000000
vt 0.000000 0.000000
vt 0.000000 0.000000
vt 0.000000 0.000000
vt 0.000000 0.000000
vt 0.000000 0.000000
vt 0.000000 0.000000
vt 0.000000 0.000000
vt 0.000000 0.000000
vt 0.000000 0.000000
vt 0.000000 0.000000
vt 0.000000 0.000000
vt 0.000000 0.000000
vt 0.000000 0.000000
vt 0.000000 0.000000
vt 0.000000 0.000000
vt 0.000000 0.000000
vt 0.000000 0.000000
vt 0.000000 0.000000
vt 0.000000 0.000000
vt 0.000000 0.000000
vt 0.000000 0.000000
vt 0.000000 0.000000
vt 0.000000 0.000000
vt 0.000000 0.000000
vt 0.000000 0.000000
vt 0.000000 0.000000
vt 0.000000 0.000000
vt 0.000000 0.000000
vt 0.000000 0.000000
vt 0.000000 0.000000
vt 0.000000 0.000000
vt 0.000000 0.000000
vt 0.000000 0.000000
vt 0.000000 0.000000
vt 0.000000 0.000000
vt 0.000000 0.000000
vt 0.000000 0.000000
vt 0.000000 0.000000
vt 0.000000 0.000000
vt 0.000000 0.000000
vt 0.000000 0.000000
vt 0.000000 0.000000
vt 0.000000 0.000000
vt 0.000000 0.000000
vt 0.000000 0.000000
vt 0.000000 0.000000
vt 0.000000 0.000000
vt 0.000000 0.000000
vt 0.000000 0.000000
vt 0.000000 0.000000
vt 0.000000 0.000000
vt 0.000000 0.000000
vt 0.000000 0.000000
vt 0.000000 0.000000
vt 0.000000 0.000000
vt 0.000000 0.000000
vt 0.000000 0.000000
vt 0.000000 0.000000
vt 0.000000 0.000000
vt 0.000000 0.000000
vt 0.000000 0.000000
vt 0.000000 0.000000
vt 0.000000 0.000000
vt 0.000000 0.000000
vt 0.000000 0.000000
vt 0.000000 0.000000
vt 0.000000 0.000000
vt 0.000000 0.000000
vt 0.000000 0.000000
vt 0.000000 0.000000
vt 0.000000 0.000000
vt 0.000000 0.000000
vt 0.000000 0.000000
vt 0.000000 0.000000
vt 0.000000 0.000000
vt 0.000000 0.000000
vt 0.000000 0.000000
vt 0.000000 0.000000
vt 0.000000 0.000000
vt 0.000000 0.000000
vt 0.000000 0.000000
vt 0.000000 0.000000
vt 0.000000 0.000000
vt 0.000000 0.000000
vt 0.000000 0.000000
vt 0.000000 0.000000
vt 0.000000 0.000000
vt 0.000000 0.000000
vt 0.000000 0.000000
vt 0.000000 0.000000
vt 0.000000 0.000000
vt 0.000000 0.000000
vt 0.000000 0.000000
vt 0.000000 0.000000
vt 0.000000 0.000000
vt 0.000000 0.000000
vt 0.000000 0.000000
vt 0.000000 0.000000
vt 0.000000 0.000000
vt 0.000000 0.000000
vt 0.000000 0.000000
vt 0.000000 0.000000
vt 0.000000 0.000000
vt 0.000000 0.000000
vt 0.000000 0.000000
vt 0.000000 0.000000
vt 0.000000 0.000000
vt 0.000000 0.000000
vt 0.000000 0.000000
vt 0.000000 0.000000
vt 0.000000 0.000000
vt 0.000000 0.000000
vt 0.000000 0.000000
vt 0.000000 0.000000
vt 0.000000 0.000000
vt 0.000000 0.000000
vt 0.000000 0.000000
vt 0.000000 0.000000
vt 0.000000 0.000000
vt 0.000000 0.000000
vt 0.000000 0.000000
vt 0.000000 0.000000
vt 0.000000 0.000000
vt 0.000000 0.000000
vt 0.000000 0.000000
vt 0.000000 0.000000
vt 0.000000 0.000000
vt 0.000000 0.000000
vt 0.000000 0.000000
vt 0.000000 0.000000
vt 0.000000 0.000000
vt 0.000000 0.000000
vt 0.000000 0.000000
vt 0.000000 0.000000
vt 0.000000 0.000000
vt 0.000000 0.000000
vt 0.000000 0.000000
vt 0.000000 0.000000
vt 0.000000 0.000000
vt 0.000000 0.000000
vt 0.000000 0.000000
vt 0.000000 0.000000
vt 0.000000 0.000000
vt 0.000000 0.000000
vt 0.000000 0.000000
vt 0.000000 0.000000
vt 0.000000 0.000000
vt 0.000000 0.000000
vt 0.000000 0.000000
vn 0.2069 0.9562 0.2069
vn 0.2927 0.9562 -0.0000
vn 0.1837 0.9830 -0.0000
vn 0.1299 0.9830 0.1299
vn 0.2069 0.9562 -0.2069
vn 0.1299 0.9830 -0.1299
vn -0.0000 0.9562 -0.2927
vn -0.0000 0.9830 -0.1837
vn -0.2069 0.9562 -0.2069
vn -0.1299 0.9830 -0.1299
vn -0.2927 0.9562 -0.0000
vn -0.1837 0.9830 -0.0000
vn -0.2069 0.9562 0.2069
vn -0.1299 0.9830 0.1299
vn 0.0000 0.9562 0.2927
vn 0.0000 0.9830 0.1837
vn 0.0000 1.0000 0.0000
vn -0.2069 -0.9562 -0.2069
vn -0.1299 -0.9830 -0.1299
vn -0.1837 -0.9830 0.0000
vn -0.2927 -0.9562 0.0000
vn -0.1299 -0.9830 0.1299
vn -0.2069 -0.9562 0.2069
vn 0.0000 -0.9830 0.1837
vn 0.0000 -0.9562 0.2927
vn 0.1299 -0.9830 0.1299
vn 0.2069 -0.9562 0.2069
vn 0.1837 -0.9830 0.0000
vn 0.2927 -0.9562 0.0000
vn 0.1299 -0.9830 -0.1299
vn 0.2069 -0.9562 -0.2069
vn -0.0000 -0.9830 -0.1837
vn -0.0000 -0.9562 -0.2927
vn 0.0000 -1.0000 0.0000
usemtl None
s 1
f 10/1/1 11/2/2 3/3/3 2/4/4
f 11/2/2 12/5/5 4/6/6 3/3/3
f 12/5/5 13/7/7 5/8/8 4/6/6
f 13/7/7 14/9/9 6/10/10 5/8/8
f 14/9/9 15/11/11 7/12/12 6/10/10
f 15/11/11 16/13/13 8/14/14 7/12/12
f 16/13/13 9/15/15 1/16/16 8/14/14
f 9/15/15 10/1/1 2/4/4 1/16/16
f 17/17/17 4/6/6 5/8/8
f 5/8/8 6/10/10 17/17/17
f 6/10/10 7/12/12 17/17/17
f 7/12/12 8/14/14 17/17/17
f 8/14/14 1/16/16 17/17/17
f 1/16/16 2/4/4 17/17/17
f 2/4/4 3/3/3 17/17/17
f 3/3/3 4/6/6 17/17/17
f 27/18/1 28/19/2 20/20/3 19/21/4
f 28/19/2 29/22/5 21/23/6 20/20/3
f 29/22/5 30/24/7 22/25/8 21/23/6
f 30/24/7 31/26/9 23/27/10 22/25/8
f 31/26/9 32/28/11 24/29/12 23/27/10
f 32/28/11 33/30/13 25/31/14 24/29/12
f 33/30/13 26/32/15 18/33/16 25/31/14
f 26/32/15 27/18/1 19/21/4 18/33/16
f 34/34/17 21/23/6 22/25/8
f 22/25/8 23/27/10 34/34/17
f 23/27/10 24/29/12 34/34/17
f 24/29/12 25/31/14 34/34/17
f 25/31/14 18/33/16 34/34/17
f 18/33/16 19/21/4 34/34/17
f 19/21/4 20/20/3 34/34/17
f 20/20/3 21/23/6 34/34/17
f 44/35/1 45/36/2 37/37/3 36/38/4
f 45/36/2 46/39/5 38/40/6 37/37/3
f 46/39/5 47/41/7 39/42/8 38/40/6
f 47/41/7 48/43/9 40/44/10 39/42/8
f 48/43/9 49/45/11 41/46/12 40/44/10
f 49/45/11 50/47/13 42/48/14 41/46/12
f 50/47/13 43/49/15 35/50/16 42/48/14
f 43/49/15 44/35/1 36/38/4 35/50/16
f 51/51/17 38/40/6 39/42/8
f 39/42/8 40/44/10 51/51/17
f 40/44/10 41/46/12 51/51/17
f 41/46/12 42/48/14 51/51/17
f 42/48/14 35/50/16 51/51/17
f 35/50/16 36/38/4 51/51/17
f 36/38/4 37/37/3 51/51/17
f 37/37/3 38/40/6 51/51/17
f 61/52/1 62/53/2 54/54/3 53/55/4
f 62/53/2 63/56/5 55/57/6 54/54/3
f 63/56/5 64/58/7 56/59/8 55/57/6
f 64/58/7 65/60/9 57/61/10 56/59/8
f 65/60/9 66/62/11 58/63/12 57/61/10
f 66/62/11 67/64/13 59/65/14 58/63/12
f 67/64/13 60/66/15 52/67/16 59/65/14
f 60/66/15 61/52/1 53/55/4 52/67/16
f 68/68/17 55/57/6 56/59/8
f 56/59/8 57/61/10 68/68/17
f 57/61/10 58/63/12 68/68/17
f 58/63/12 59/65/14 68/68/17
f 59/65/14 52/67/16 68/68/17
f 52/67/16 53/55/4 68/68/17
f 53/55/4 54/54/3 68/68/17
f 54/54/3 55/57/6 68/68/17
f 78/69/1 79/70/2 71/71/3 70/72/4
f 79/70/2 80/73/5 72/74/6 71/71/3
f 80/73/5 81/75/7 73/76/8 72/74/6
f 81/75/7 82/77/9 74/78/10 73/76/8
f 82/77/9 83/79/11 75/80/12 74/78/10
f 83/79/11 84/81/13 76/82/14 75/80/12
f 84/81/13 77/83/15 69/84/16 76/82/14
f 77/83/15 78/69/1 70/72/4 69/84/16
f 85/85/17 72/74/6 73/76/8
f 73/76/8 74/78/10 85/85/17
f 74/78/10 75/80/12 85/85/17
f 75/80/12 76/82/14 85/85/17
f 76/82/14 69/84/16 85/85/17
f 69/84/16 70/72/4 85/85/17
f 70/72/4 71/71/3 85/85/17
f 71/71/3 72/74/6 85/85/17
f 95/86/1 96/87/2 88/88/3 87/89/4
f 96/87/2 97/90/5 89/91/6 88/88/3
f 97/90/5 98/92/7 90/93/8 89/91/6
f 98/92/7 99/94/9 91/95/10 90/93/8
f 99/94/9 100/96/11 92/97/12 91/95/10
f 100/96/11 101/98/13 93/99/14 92/97/12
f 101/98/13 94/100/15 86/101/16 93/99/14
f 94/100/15 95/86/1 87/89/4 86/101/16
f 102/102/17 89/91/6 90/93/8
f 90/93/8 91/95/10 102/102/17
f 91/95/10 92/97/12 102/102/17
f 92/97/12 93/99/14 102/102/17
f 93/99/14 86/101/16 102/102/17
f 86/101/16 87/89/4 102/102/17
f 87/89/4 88/88/3 102/102/17
f 88/88/3 89/91/6 102/102/17
f 112/103/1 113/104/2 105/105/3 104/106/4
f 113/104/2 114/107/5 106/108/6 105/105/3
f 114/107/5 115/109/7 107/110/8 106/108/6
f 115/109/7 116/111/9 108/112/10 107/110/8
f 116/111/9 117/113/11 109/114/12 108/112/10
f 117/113/11 118/115/13 110/116/14 109/114/12
f 118/115/13 111/117/15 103/118/16 110/116/14
f 111/117/15 112/103/1 104/106/4 103/118/16
f 119/119/17 106/108/6 107/110/8
f 107/110/8 108/112/10 119/119/17
f 108/112/10 109/114/12 119/119/17
f 109/114/12 110/116/14 119/119/17
f 110/116/14 103/118/16 119/119/17
f 103/118/16 104/106/4 119/119/17
f 104/106/4 105/105/3 119/119/17
f 105/105/3 106/108/6 119/119/17
f 129/120/1 130/121/2 122/122/3 121/123/4
f 130/121/2 131/124/5 123/125/6 122/122/3
f 131/124/5 132/126/7 124/127/8 123/125/6
f 132/126/7 133/128/9 125/129/10 124/127/8
f 133/128/9 134/130/11 126/131/12 125/129/10
f 134/130/11 135/132/13 127/133/14 126/131/12
f 135/132/13 128/134/15 120/135/16 127/133/14
f 128/134/15 129/120/1 121/123/4 120/135/16
f 136/136/17 123/125/6 124/127/8
f 124/127/8 125/129/10 136/136/17
f 125/129/10 126/131/12 136/136/17
f 126/131/12 127/133/14 136/136/17
f 127/133/14 120/135/16 136/136/17
f 120/135/16 121/123/4 136/136/17
f 121/123/4 122/122/3 136/136/17
f 122/122/3 123/125/6 136/136/17
f 146/137/18 138/138/19 139/139/20 147/140/21
f 147/140/21 139/139/20 140/141/22 148/142/23
f 148/142/23 140/141/22 141/143/24 149/144/25
f 149/144/25 141/143/24 142/145/26 150/146/27
f 150/146/27 142/145/26 143/147/28 151/148/29
f 151/148/29 143/147/28 144/149/30 152/150/31
f 152/150/31 144/149/30 137/151/32 145/152/33
f 145/152/33 137/151/32 138/138/19 146/137/18
f 153/153/34 141/143/24 140/141/22
f 141/143/24 153/153/34 142/145/26
f 142/145/26 153/153/34 143/147/28
f 143/147/28 153/153/34 144/149/30
f 144/149/30 153/153/34 137/151/32
f 137/151/32 153/153/34 138/138/19
f 138/138/19 153/153/34 139/139/20
f 139/139/20 153/153/34 140/141/22
f 163/154/18 155/155/19 156/156/20 164/157/21
f 164/157/21 156/156/20 157/158/22 165/159/23
f 165/159/23 157/158/22 158/160/24 166/161/25
f 166/161/25 158/160/24 159/162/26 167/163/27
f 167/163/27 159/162/26 160/164/28 168/165/29
f 168/165/29 160/164/28 161/166/30 169/167/31
f 169/167/31 161/166/30 154/168/32 162/169/33
f 162/169/33 154/168/32 155/155/19 163/154/18
f 170/170/34 158/160/24 157/158/22
f 158/160/24 170/170/34 159/162/26
f 159/162/26 170/170/34 160/164/28
f 160/164/28 170/170/34 161/166/30
f 161/166/30 170/170/34 154/168/32
f 154/168/32 170/170/34 155/155/19
f 155/155/19 170/170/34 156/156/20
f 156/156/20 170/170/34 157/158/22
f 180/171/18 172/172/19 173/173/20 181/174/21
f 181/174/21 173/173/20 174/175/22 182/176/23
f 182/176/23 174/175/22 175/177/24 183/178/25
f 183/178/25 175/177/24 176/179/26 184/180/27
f 184/180/27 176/179/26 177/181/28 185/182/29
f 185/182/29 177/181/28 178/183/30 186/184/31
f 186/184/31 178/183/30 171/185/32 179/186/33
f 179/186/33 171/185/32 172/172/19 180/171/18
f 187/187/34 175/177/24 174/175/22
f 175/177/24 187/187/34 176/179/26
f 176/179/26 187/187/34 177/181/28
f 177/181/28 187/187/34 178/183/30
f 178/183/30 187/187/34 171/185/32
f 171/185/32 187/187/34 172/172/19
f 172/172/19 187/187/34 173/173/20
f 173/173/20 187/187/34 174/175/22
f 197/188/18 189/189/19 190/190/20 198/191/21
f 198/191/21 190/190/20 191/192/22 199/193/23
f 199/193/23 191/192/22 192/194/24 200/195/25
f 200/195/25 192/194/24 193/196/26 201/197/27
f 201/197/27 193/196/26 194/198/28 202/199/29
f 202/199/29 194/198/28 195/200/30 203/201/31
f 203/201/31 195/200/30 188/202/32 196/203/33
f 196/203/33 188/202/32 189/189/19 197/188/18
f 204/204/34 192/194/24 191/192/22
f 192/194/24 204/204/34 193/196/26
f 193/196/26 204/204/34 194/198/28
f 194/198/28 204/204/34 195/200/30
f 195/200/30 204/204/34 188/202/32
f 188/202/32 204/204/34 189/189/19
f 189/189/19 204/204/34 190/190/20
f 190/190/20 204/204/34 191/192/22
f 214/205/18 206/206/19 207/207/20 215/208/21
f 215/208/21 207/207/20 208/209/22 216/210/23
f 216/210/23 208/209/22 209/211/24 217/212/25
f 217/212/25 209/211/24 210/213/26 218/214/27
f 218/214/27 210/213/26 211/215/28 219/216/29
f 219/216/29 211/215/28 212/217/30 220/218/31
f 220/218/31 212/217/30 205/219/32 213/220/33
f 213/220/33 205/219/32 206/206/19 214/205/18
f 221/221/34 209/211/24 208/209/22
f 209/211/24 221/221/34 210/213/26
f 210/213/26 221/221/34 211/215/28
f 211/215/28 221/221/34 212/217/30
f 212/217/30 221/221/34 205/219/32
f 205/219/32 221/221/34 206/206/19
f 206/206/19 221/221/34 207/207/20
f 207/207/20 221/221/34 208/209/22
f 231/222/18 223/223/19 224/224/20 232/225/21
f 232/225/21 224/224/20 225/226/22 233/227/23
f 233/227/23 225/226/22 226/228/24 234/229/25
f 234/229/25 226/228/24 227/230/26 235/231/27
f 235/231/27 227/230/26 228/232/28 236/233/29
f 236/233/29 228/232/28 229/234/30 237/235/31
f 237/235/31 229/234/30 222/236/32 230/237/33
f 230/237/33 222/236/32 223/223/19 231/222/18
f 238/238/34 226/228/24 225/226/22
f 226/228/24 238/238/34 227/230/26
f 227/230/26 238/238/34 228/232/28
f 228/232/28 238/238/34 229/234/30
f 229/234/30 238/238/34 222/236/32
f 222/236/32 238/238/34 223/223/19
f 223/223/19 238/238/34 224/224/20
f 224/224/20 238/238/34 225/226/22
f 248/239/18 240/240/19 241/241/20 249/242/21
f 249/242/21 241/241/20 242/243/22 250/244/23
f 250/244/23 242/243/22 243/245/24 251/246/25
f 251/246/25 243/245/24 244/247/26 252/248/27
f 252/248/27 244/247/26 245/249/28 253/250/29
f 253/250/29 245/249/28 246/251/30 254/252/31
f 254/252/31 246/251/30 239/253/32 247/254/33
f 247/254/33 239/253/32 240/240/19 248/239/18
f 255/255/34 243/245/24 242/243/22
f 243/245/24 255/255/34 244/247/26
f 244/247/26 255/255/34 245/249/28
f 245/249/28 255/255/34 246/251/30
f 246/251/30 255/255/34 239/253/32
f 239/253/32 255/255/34 240/240/19
f 240/240/19 255/255/34 241/241/20
f 241/241/20 255/255/34 242/243/22
f 265/256/18 257/257/19 258/258/20 266/259/21
f 266/259/21 258/258/20 259/260/22 267/261/23
f 267/261/23 259/260/22 260/262/24 268/263/25
f 268/263/25 260/262/24 261/264/26 269/265/27
f 269/265/27 261/264/26 262/266/28 270/267/29
f 270/267/29 262/266/28 263/268/30 271/269/31
f 271/269/31 263/268/30 256/270/32 264/271/33
f 264/271/33 256/270/32 257/257/19 265/256/18
f 272/272/34 260/262/24 259/260/22
f 260/262/24 272/272/34 261/264/26
f 261/264/26 272/272/34 262/266/28
f 262/266/28 272/272/34 263/268/30
f 263/268/30 272/272/34 256/270/32
f 256/270/32 272/272/34 257/257/19
f 257/257/19 272/272/34 258/258/20
f 258/258/20 272/272/34 259/260/22
