# Blender v3.2.2 OBJ File: 'Sofa.blend'
# www.blender.org
mtllib Sofa.mtl
o Sofa_Cube
v -0.285263 -0.093443 0.513580
v -0.285263 -0.093443 -0.513580
v 0.256847 -0.093443 0.513580
v 0.256847 -0.093443 -0.513580
v -0.197875 0.165688 0.513580
v -0.197875 0.165688 -0.513580
v -0.285263 -0.093443 -0.000000
v -0.197875 0.541570 0.000000
v -0.285263 0.541570 0.000000
v 0.256847 -0.093443 0.000000
v -0.197875 0.165688 -0.000000
v 0.278189 -0.093443 -0.499353
v 0.278189 -0.093443 -0.675011
v -0.304469 0.296311 -0.499353
v -0.304469 -0.093443 -0.499353
v -0.304469 0.296311 -0.675011
v -0.304469 -0.093443 -0.675011
v 0.256847 0.069345 0.513580
v 0.216891 0.100347 0.513580
v 0.216891 0.100347 -0.513580
v 0.256847 0.069345 -0.513580
v 0.256847 0.069345 0.000000
v 0.216891 0.100347 -0.000000
v 0.227079 0.133017 0.513580
v 0.227079 0.133017 -0.526194
v 0.227079 0.133017 -0.000000
v 0.216891 0.165688 0.513580
v 0.216891 0.165688 -0.513580
v 0.216891 0.165688 -0.000000
v -0.285263 0.516311 0.513580
v -0.285263 0.541570 0.486667
v -0.285263 0.541570 -0.486667
v -0.285263 0.516311 -0.513580
v -0.197875 0.541570 0.486667
v -0.197875 0.516311 0.513580
v -0.197875 0.516311 -0.513580
v -0.197875 0.541570 -0.486667
v 0.278189 0.282583 -0.499353
v 0.241971 0.296311 -0.499353
v 0.241971 0.296311 -0.675011
v 0.278189 0.282583 -0.675011
v 0.278189 -0.093443 -0.499353
v 0.278189 -0.093443 -0.675011
v -0.304469 0.296311 -0.499353
v -0.304469 -0.093443 -0.499353
v -0.304469 0.296311 -0.675011
v -0.304469 -0.093443 -0.675011
v 0.278189 0.282583 -0.499353
v 0.241971 0.296311 -0.499353
v 0.241971 0.296311 -0.675011
v 0.278189 0.282583 -0.675011
v 0.278189 0.282583 0.675011
v 0.241971 0.296311 0.675011
v 0.241971 0.296311 0.499353
v 0.278189 0.282583 0.499353
v -0.304469 -0.093443 0.675011
v -0.304469 0.296311 0.675011
v -0.304469 -0.093443 0.499353
v -0.304469 0.296311 0.499353
v 0.278189 -0.093443 0.675011
v 0.278189 -0.093443 0.499353
v 0.278189 -0.093443 0.499353
v 0.278189 -0.093443 0.675011
v -0.304469 0.296311 0.499353
v -0.304469 -0.093443 0.499353
v -0.304469 0.296311 0.675011
v -0.304469 -0.093443 0.675011
v 0.278189 0.282583 0.499353
v 0.241971 0.296311 0.499353
v 0.241971 0.296311 0.675011
v 0.278189 0.282583 0.675011
vt 0.025000 0.525000
vt 0.250000 0.526309
vt 0.250000 0.975000
vt 0.039397 0.975000
vt 0.025000 0.942992
vt 0.475000 0.025000
vt 0.475000 0.117007
vt 0.251357 0.117007
vt 0.251357 0.025000
vt 0.475000 0.458473
vt 0.461959 0.475000
vt 0.251356 0.475000
vt 0.251357 0.262554
vt 0.475000 0.262554
vt 0.039397 0.475000
vt 0.025000 0.458473
vt 0.025000 0.262554
vt 0.475000 0.526309
vt 0.475000 0.942992
vt 0.461959 0.975000
vt 0.025000 0.117007
vt 0.025000 0.025000
vt 0.786818 0.211880
vt 0.786818 0.189837
vt 0.989705 0.189837
vt 0.903483 0.211880
vt 0.812111 0.414611
vt 0.812111 0.489684
vt 0.733763 0.489684
vt 0.733763 0.414611
vt 0.505388 0.189837
vt 0.708276 0.189837
vt 0.708276 0.211880
vt 0.591611 0.211880
vt 0.716850 0.211880
vt 0.716850 0.189837
vt 0.747547 0.189837
vt 0.747547 0.211880
vt 0.598007 0.585703
vt 0.598007 0.932984
vt 0.945287 0.932984
vt 0.945287 0.607290
vt 0.933026 0.585703
vt 0.961688 0.414611
vt 0.961688 0.489684
vt 0.819455 0.489684
vt 0.819455 0.414611
vt 0.598007 0.932984
vt 0.598007 0.585703
vt 0.933026 0.585703
vt 0.945287 0.607290
vt 0.945287 0.932984
vt 0.586337 0.489684
vt 0.586337 0.414611
vt 0.251357 0.136508
vt 0.025000 0.136508
vt 0.475000 0.136508
vt 0.251357 0.155102
vt 0.025000 0.155102
vt 0.475000 0.155102
vt 0.251357 0.173695
vt 0.025000 0.173695
vt 0.475000 0.173695
vt 0.778244 0.211880
vt 0.778244 0.189837
vt 0.812111 0.414611
vt 0.812111 0.489684
vt 0.733763 0.489684
vt 0.733763 0.414611
vt 0.961688 0.414611
vt 0.961688 0.489684
vt 0.819455 0.489684
vt 0.819455 0.414611
vt 0.586337 0.489684
vt 0.586337 0.414611
vt 0.961688 0.414611
vt 0.819455 0.414611
vt 0.819455 0.489684
vt 0.961688 0.489684
vt 0.812111 0.414611
vt 0.733763 0.414611
vt 0.733763 0.489684
vt 0.812111 0.489684
vt 0.598007 0.932984
vt 0.945287 0.932984
vt 0.945287 0.607290
vt 0.933026 0.585703
vt 0.598007 0.585703
vt 0.598007 0.585703
vt 0.933026 0.585703
vt 0.945287 0.607290
vt 0.945287 0.932984
vt 0.598007 0.932984
vt 0.586337 0.489684
vt 0.586337 0.414611
vn -0.9792 -0.0000 -0.2028
vn -1.0000 -0.0000 0.0000
vn -0.7071 0.7071 -0.0000
vn -0.6329 0.7199 -0.2849
vn -0.6277 0.3093 -0.7144
vn 1.0000 0.0000 0.0000
vn 0.8981 0.4399 0.0000
vn 0.6277 0.3093 -0.7144
vn 0.6329 0.7199 -0.2849
vn 0.7071 0.7071 0.0000
vn 0.4379 0.4379 -0.7852
vn 0.6329 0.7199 0.2849
vn 0.6277 0.3093 0.7144
vn 0.4379 0.4379 0.7852
vn -0.9792 -0.0000 0.2028
vn -0.6277 0.3093 0.7144
vn -0.6329 0.7199 0.2849
vn 0.1340 0.7314 0.6687
vn 0.1340 0.7314 -0.6687
vn -0.5774 0.5774 -0.5774
vn -0.5774 0.5774 0.5774
vn 0.7071 0.0000 -0.7071
vn -0.7071 0.0000 -0.7071
vn 0.6591 0.4550 -0.5988
vn 0.7071 0.0000 0.7071
vn 0.6591 0.4550 0.5988
vn -0.7071 0.0000 0.7071
vn 0.9541 0.2996 0.0000
vn 0.9727 0.2322 0.0000
vn 0.5926 0.8055 -0.0000
vn 0.6507 0.7594 0.0000
vn 0.1802 0.9836 0.0000
vn 0.8229 0.5681 0.0000
vn 0.0000 0.0000 -1.0000
vn 0.0000 0.0000 1.0000
usemtl Material
s 1
f 2/1/1 7/2/2 9/3/3 32/4/4 33/5/5
f 4/6/6 21/7/7 22/8/7 10/9/6
f 36/10/8 37/11/9 8/12/10 11/13/10 6/14/11
f 8/12/10 34/15/12 35/16/13 5/17/14 11/13/10
f 7/2/2 1/18/15 30/19/16 31/20/17 9/3/3
f 10/9/6 22/8/7 18/21/7 3/22/6
f 35/23/13 30/24/16 1/25/15 5/26/14
f 39/27/18 40/28/19 16/29/20 14/30/21
f 2/31/1 33/32/5 36/33/8 6/34/11
f 37/35/9 32/36/4 9/37/3 8/38/10
f 13/39/22 17/40/23 16/41/20 40/42/19 41/43/24
f 12/44/25 13/45/22 41/46/24 38/47/26
f 15/48/27 12/49/25 38/50/26 39/51/18 14/52/21
f 17/53/23 15/54/27 14/30/21 16/29/20
f 23/55/28 19/56/28 18/21/7 22/8/7
f 20/57/29 23/55/28 22/8/7 21/7/7
f 26/58/6 24/59/6 19/56/28 23/55/28
f 25/60/6 26/58/6 23/55/28 20/57/29
f 24/59/6 26/58/6 29/61/30 27/62/30
f 29/61/30 26/58/6 25/60/6 28/63/31
f 5/17/14 27/62/30 29/61/30 11/13/10
f 11/13/10 29/61/30 28/63/31 6/14/11
f 30/24/16 35/23/13 34/64/12 31/65/17
f 36/33/8 33/32/5 32/36/4 37/35/9
f 38/47/26 41/46/24 40/28/19 39/27/18
f 8/38/10 9/37/3 31/65/17 34/64/12
f 49/66/32 50/67/32 46/68/3 44/69/3
f 42/70/6 43/71/6 51/72/33 48/73/33
f 47/74/2 45/75/2 44/69/3 46/68/3
f 48/73/33 51/72/33 50/67/32 49/66/32
f 62/76/6 68/77/33 71/78/33 63/79/6
f 69/80/32 64/81/3 66/82/3 70/83/32
f 58/84/34 59/85/34 54/86/34 55/87/34 61/88/34
f 60/89/35 52/90/35 53/91/35 57/92/35 56/93/35
f 67/94/2 66/82/3 64/81/3 65/95/2
f 68/77/33 69/80/32 70/83/32 71/78/33
