# Blender v3.2.2 OBJ File: 'tableCoffee.blend'
# www.blender.org
mtllib tableCoffee.mtl
o table_Cube.001
v -0.868722 0.295513 0.321080
v -0.868722 0.386648 0.321080
v -0.868722 0.295513 -0.321080
v -0.868722 0.386648 -0.321080
v 0.868722 0.295513 0.321080
v 0.868722 0.386648 0.321080
v 0.868722 0.295513 -0.321080
v 0.868722 0.386648 -0.321080
v -0.808959 0.295513 0.313588
v -0.851765 0.295513 0.313588
v 0.851766 0.295513 -0.313588
v 0.808959 0.295513 -0.313588
v 0.851766 0.295513 -0.270781
v 0.808959 0.295513 -0.270781
v 0.815561 0.002675 -0.276120
v 0.859022 0.002675 -0.276120
v 0.815561 0.002675 -0.319581
v 0.859022 0.002675 -0.319581
v -0.851765 0.295513 0.270782
v -0.808959 0.295513 0.270782
v -0.815561 0.002675 0.276121
v -0.859022 0.002675 0.276121
v -0.815561 0.002675 0.319581
v -0.859022 0.002675 0.319581
v 0.808959 0.295513 0.313588
v 0.851766 0.295513 0.313588
v -0.851765 0.295513 -0.313588
v -0.808959 0.295513 -0.313588
v -0.851765 0.295513 -0.270781
v -0.808959 0.295513 -0.270781
v -0.815561 0.002675 -0.276120
v -0.859022 0.002675 -0.276120
v -0.815561 0.002675 -0.319581
v -0.859022 0.002675 -0.319581
v 0.851766 0.295513 0.270782
v 0.808959 0.295513 0.270782
v 0.815561 0.002675 0.276120
v 0.859022 0.002675 0.276120
v 0.815561 0.002675 0.319581
v 0.859022 0.002675 0.319581
vt 0.000000 2.499750
vt 0.132935 2.499750
vt 0.132935 2.999700
vt 0.000000 2.999700
vt 0.000000 0.000000
vt 0.132935 0.000000
vt 0.132935 0.999900
vt 0.000000 0.999900
vt 0.132935 1.499850
vt 0.000000 1.499850
vt 0.631492 0.000000
vt 0.631492 1.000000
vt 0.000000 1.000000
vt 0.000000 0.000000
vt 0.000000 1.000000
vt 0.000000 0.000000
vt 0.631492 0.000000
vt 0.631492 1.000000
vt 0.299489 0.441983
vt 0.259190 0.441983
vt 0.259805 0.000000
vt 0.299494 0.000000
vt 0.374676 0.441983
vt 0.357233 0.441983
vt 0.356629 0.000000
vt 0.374072 0.000000
vt 0.316933 0.441983
vt 0.316937 0.000000
vt 0.299353 0.441983
vt 0.259054 0.441983
vt 0.259666 0.000000
vt 0.299357 0.000000
vt 0.374539 0.441983
vt 0.357096 0.441983
vt 0.356493 0.000000
vt 0.373936 0.000000
vt 0.316796 0.441983
vt 0.316800 0.000000
vt 0.334239 0.441983
vt 0.334057 0.000000
vt 0.373750 0.000000
vt 0.374539 0.441983
vt 0.259054 0.441983
vt 0.259479 0.000000
vt 0.276922 0.000000
vt 0.276497 0.441983
vt 0.316613 0.000000
vt 0.316796 0.441983
vt 0.334239 0.441983
vt 0.334057 0.000000
vt 0.373749 0.000000
vt 0.374539 0.441983
vt 0.259054 0.441983
vt 0.259478 0.000000
vt 0.276921 0.000000
vt 0.276497 0.441983
vt 0.316613 0.000000
vt 0.316796 0.441983
vn -1.0000 0.0000 0.0000
vn 0.0000 0.0000 -1.0000
vn 1.0000 0.0000 0.0000
vn 0.0000 0.0000 1.0000
vn 0.0000 -1.0000 0.0000
vn 0.0000 1.0000 0.0000
vn -0.9997 -0.0225 0.0000
vn 0.0000 -0.0182 0.9998
vn 0.9997 0.0248 0.0000
vn 0.0000 0.0205 -0.9998
vn 0.9997 -0.0225 -0.0000
vn 0.0000 -0.0182 -0.9998
vn -0.9997 0.0248 0.0000
vn 0.0000 0.0205 0.9998
usemtl bedFrame
s off
f 1/1/1 2/2/1 4/3/1 3/4/1
f 3/5/2 4/6/2 8/7/2 7/8/2
f 7/8/3 8/7/3 6/9/3 5/10/3
f 5/10/4 6/9/4 2/2/4 1/1/4
f 3/11/5 7/12/5 5/13/5 1/14/5
f 8/15/6 4/16/6 2/17/6 6/18/6
f 17/19/7 15/20/7 14/21/7 12/22/7
f 15/23/8 16/24/8 13/25/8 14/26/8
f 16/24/9 18/27/9 11/28/9 13/25/9
f 18/27/10 17/19/10 12/22/10 11/28/10
f 23/29/11 21/30/11 20/31/11 9/32/11
f 21/33/12 22/34/12 19/35/12 20/36/12
f 22/34/13 24/37/13 10/38/13 19/35/13
f 24/37/14 23/29/14 9/32/14 10/38/14
f 33/39/11 28/40/11 30/41/11 31/42/11
f 31/43/8 30/44/8 29/45/8 32/46/8
f 32/46/13 29/45/13 27/47/13 34/48/13
f 34/48/10 27/47/10 28/40/10 33/39/10
f 39/49/7 25/50/7 36/51/7 37/52/7
f 37/53/12 36/54/12 35/55/12 38/56/12
f 38/56/9 35/55/9 26/57/9 40/58/9
f 40/58/14 26/57/14 25/50/14 39/49/14
